# xmcd
#
# Track frame offsets:
# 150
# 22690
# 39369
# 54433
# 72108
# 85549
# 97375
# 109052
# 122130
# 139271
# 157523
# 171961
#
# Disc length: 2574 seconds
#
#
# Revision: 2
# Processed by: cddbd v1.5.1PL0 Copyright (c) Steve Scherf et al.
# Submitted via: FreeRIP 2.942 
#
DISCID=8f0a0c0c
DTITLE=Gettin' Rowdy  Good Ol' Boys - Gettin' Rowdy  Good Ol' Boys
DYEAR=2005
DGENRE=Country
TTITLE0=Molly Hatchet - Flirtin' With Disaster
TTITLE1=Charlie Daniels Band - Drinkin' My Baby Goodbye
TTITLE2=The Fabulous Thunderbirds - Tuff Enuff
TTITLE3=David Allen Coe - Son Of The South
TTITLE4=Mickey Gilley - Don't The Girls All Get Prettier At Closing Time
TTITLE5=Johnny Paycheck - Take This Job And Shove It
TTITLE6=Moe Bandy and Joe Stampley - Just Good Ol' Boys
TTITLE7=Waylon Jennings - Are You Sure Hank Done It This Way
TTITLE8=Joe Diffie - Pop Me Up Beside The Jukebox (If I Die)
TTITLE9=Charlie Daniels Band - Long Haired Country Boy
TTITLE10=Johnny Paycheck - I'm The Only Hell (Mama Ever Raised)
TTITLE11=Lynyrd Skynyrd - Free Bird
EXTD=
EXTT0=
EXTT1=
EXTT2=
EXTT3=
EXTT4=
EXTT5=
EXTT6=
EXTT7=
EXTT8=
EXTT9=
EXTT10=
EXTT11=
PLAYORDER=
